<svg xmlns="http://www.w3.org/2000/svg" width="640" height="640" viewBox="0 0 640 640">
  <defs><linearGradient id="bg" x1="0" y1="0" x2="1" y2="1">
      <stop offset="0" stop-color="#f4fffb"/><stop offset="1" stop-color="#e0f7f1"/>
    </linearGradient></defs>
  <rect width="640" height="640" fill="url(#bg)"/>
  
  <circle cx="320" cy="180" r="94" fill="#ffffff"/>
  <circle cx="320" cy="180" r="94" fill="none" stroke="#0FB6A8" stroke-opacity="0.18" stroke-width="2"/>
  <g transform="translate(248,108) scale(3.0)">
  <path d="M24 3 C14.6 3 7 10.6 7 20 C7 31.9 24 46 24 46 C24 46 41 31.9 41 20 C41 10.6 33.4 3 24 3 Z" fill="#0FB6A8"/>
  <circle cx="24" cy="19.5" r="9.6" fill="#ffffff"/>
  <path d="M25.6 10.8 L17.4 22 L22.6 22 L20.8 28.4 L30.6 16.6 L24.8 16.6 Z" fill="#FF6B6B"/>
</g>
  <text x="320" y="372" text-anchor="middle" font-family="Helvetica Neue, Helvetica, Arial, sans-serif" font-size="74" font-weight="800" letter-spacing="1" fill="#15233B">SCOUT</text>
  <rect x="290" y="398" width="60" height="5" rx="2.5" fill="#FF6B6B"/>
  <text x="320" y="476" text-anchor="middle" font-family="Helvetica Neue, Helvetica, Arial, sans-serif" font-size="58" font-weight="800" fill="#0FB6A8">£29</text>
  <text x="320" y="512" text-anchor="middle" font-family="Helvetica Neue, Helvetica, Arial, sans-serif" font-size="22" font-weight="600" fill="#5a7d78">per month</text>
  <text x="320" y="586" text-anchor="middle" font-family="Helvetica Neue, Helvetica, Arial, sans-serif" font-size="22" font-weight="700" letter-spacing="5" fill="#0FB6A8">SITE POUNCE</text>
</svg>